<?xml version="1.0" encoding="utf-8"?>
<!-- Generator: Adobe Illustrator 17.1.0, SVG Export Plug-In . SVG Version: 6.00 Build 0)  -->
<!DOCTYPE svg PUBLIC "-//W3C//DTD SVG 1.1//EN" "http://www.w3.org/Graphics/SVG/1.1/DTD/svg11.dtd">
<svg version="1.1" id="Layer_1" xmlns="http://www.w3.org/2000/svg" xmlns:xlink="http://www.w3.org/1999/xlink" x="0px" y="0px"
	 viewBox="-32.5 -28.8 164.5 118.2" enable-background="new -32.5 -28.8 164.5 118.2" xml:space="preserve">
<g>
	<polygon fill="#24253D" points="-22.2,35.1 -26.8,35.1 -18.1,59.7 -18.1,59.7 -15.8,53.4 	"/>
	<rect x="-8.6" y="35.1" fill="#24253D" width="4.4" height="24.6"/>
	<path fill="#24253D" d="M0.9,49.6c-0.4,0.9-0.6,1.9-0.6,2.8c0,1.2,0.2,2.3,0.6,3.3c0.4,1,1,1.8,1.8,2.4c0.8,0.7,1.7,1.2,2.7,1.5
		C5.9,59.8,6.4,60,7,60c-0.2-0.1-0.3-0.2-0.5-0.3c-0.6-0.5-1.1-1.1-1.5-1.9c-0.3-0.7-0.5-1.6-0.6-2.5c-0.1-0.9-0.1-1.8-0.1-2.6
		l0-2.1c0-0.6,0.1-1.3,0.1-2c0.1-0.7,0.2-1.4,0.4-2c0.2-0.6,0.6-1.2,1.1-1.6C6,45,6,45,6,45c-0.3,0.1-0.6,0.2-1,0.4
		c-1,0.4-1.8,1-2.5,1.7C1.8,47.8,1.3,48.6,0.9,49.6z"/>
	<path fill="#24253D" d="M12.7,46.2c-0.6-0.5-1.3-0.9-2.1-1.1c-0.3-0.1-0.7-0.2-1-0.2c0,0,0.1,0,0.1,0.1c0.4,0.3,0.6,0.7,0.8,1.1
		c0.2,0.4,0.2,0.8,0.3,1.3c0,0.4,0,0.7,0,1v2.5h4c0-1-0.2-1.8-0.6-2.6C13.8,47.4,13.3,46.7,12.7,46.2z"/>
	<rect x="15.5" y="44.3" fill="#24253D" width="2.6" height="2.4"/>
	<path fill="#24253D" d="M21.8,40.9c-0.8,0.2-1.6,0.2-2.4,0c-0.2-0.1-0.4-0.1-0.6-0.2v4.1v11.4c0,0.4,0,0.9,0.1,1.4
		c0,0.4,0.2,0.8,0.5,1.2c0.3,0.4,0.7,0.7,1.3,0.9c0.6,0.3,1.5,0.4,2.7,0.4c0.1,0,0.3,0,0.4,0c-0.1,0-0.2-0.1-0.3-0.1
		c-0.3-0.2-0.6-0.4-0.7-0.7c-0.2-0.3-0.3-0.6-0.3-1c-0.1-0.3-0.1-0.7-0.1-1.1V40.8C22.2,40.8,22,40.9,21.8,40.9z"/>
	<rect x="28.3" y="34.8" fill="#24253D" width="3.6" height="24.9"/>
	<path fill="#24253D" d="M38.5,45.9c0.5,0.5,0.7,1.4,0.7,2.5v11.4h3.6V49.5c0-1.5-0.4-2.6-1.2-3.4c-0.8-0.8-1.9-1.2-3.4-1.2
		c-0.6,0-1.2,0.1-1.7,0.2C37.4,45,38,45.3,38.5,45.9z"/>
	<path fill="#24253D" d="M46.9,49.5c-0.4,0.9-0.6,1.9-0.6,3c0,1.1,0.2,2.1,0.6,3c0.4,0.9,1,1.8,1.7,2.5c0.7,0.7,1.6,1.3,2.6,1.7
		c0.4,0.1,0.7,0.3,1.1,0.4c-0.1-0.1-0.2-0.1-0.2-0.2c-0.6-0.5-1-1.1-1.3-1.9c-0.3-0.7-0.4-1.6-0.5-2.6c-0.1-0.9-0.1-1.9-0.1-2.8
		c0-1,0-1.9,0.1-2.8c0.1-0.9,0.2-1.8,0.5-2.5c0.3-0.8,0.7-1.4,1.3-1.9c0.1-0.1,0.2-0.1,0.3-0.2c-0.4,0.1-0.8,0.2-1.2,0.4
		c-1,0.4-1.9,1-2.6,1.7C47.9,47.7,47.3,48.5,46.9,49.5z"/>
	<path fill="#24253D" d="M62.2,55.4c0.4-0.9,0.6-1.9,0.6-3c0-1-0.2-2-0.6-3c-0.4-0.9-1-1.8-1.7-2.5c-0.7-0.7-1.6-1.3-2.6-1.7
		c-0.4-0.2-0.8-0.3-1.2-0.4c0.1,0.1,0.2,0.1,0.3,0.2c0.6,0.5,1,1.1,1.3,1.9c0.3,0.7,0.4,1.6,0.5,2.5c0.1,0.9,0.1,1.9,0.1,2.8
		c0,0.9,0,1.9-0.1,2.8c-0.1,1-0.2,1.8-0.5,2.6c-0.3,0.8-0.7,1.4-1.3,1.9c-0.1,0.1-0.1,0.1-0.2,0.2c0.4-0.1,0.7-0.2,1.1-0.4
		c1-0.4,1.9-1,2.6-1.7C61.2,57.2,61.8,56.4,62.2,55.4z"/>
	<path fill="#24253D" d="M67.6,47.4c-0.6,0.8-1,1.6-1.3,2.5c-0.3,0.9-0.4,1.8-0.4,2.6c0,1,0.2,2,0.5,2.9c0.4,0.9,0.9,1.8,1.5,2.5
		c0.6,0.7,1.4,1.3,2.3,1.7c0.4,0.2,0.8,0.3,1.3,0.5c-0.1,0-0.1-0.1-0.2-0.1c-0.4-0.4-0.8-1-1-1.7c-0.2-0.7-0.3-1.5-0.4-2.5
		c-0.1-0.9-0.1-2-0.1-3.2c0-1.4,0.1-2.7,0.2-3.7c0.1-1,0.3-1.9,0.6-2.5c0.3-0.7,0.7-1.2,1.2-1.5c0,0,0.1,0,0.1-0.1
		c-0.8,0.1-1.4,0.3-2,0.7C68.9,46,68.2,46.6,67.6,47.4z"/>
	<polygon fill="#24253D" points="77.9,59.7 81.4,59.7 81.4,34.8 77.8,34.8 	"/>
	<path fill="#24253D" d="M86.4,38.6c0.4,0.4,0.9,0.6,1.5,0.6c0.6,0,1.1-0.2,1.5-0.6c0.4-0.4,0.6-0.9,0.6-1.5c0-0.6-0.2-1.1-0.6-1.5
		C89,35.2,88.5,35,87.9,35c-0.6,0-1.1,0.2-1.5,0.6c-0.4,0.4-0.6,0.9-0.6,1.5C85.8,37.7,86,38.2,86.4,38.6z"/>
	<rect x="86.1" y="45.2" fill="#24253D" width="3.6" height="14.5"/>
	<path fill="#24253D" d="M105.9,45.7c-0.5-0.3-1.1-0.6-1.8-0.8c-0.3-0.1-0.5-0.1-0.8-0.2c0,0,0.1,0.1,0.1,0.1
		c0.5,0.3,0.8,0.8,0.8,1.5c0,0.1,0,0.3-0.1,0.6c-0.1,0.2-0.1,0.5-0.2,0.7c-0.1,0.3-0.1,0.5-0.2,0.8c-0.1,0.3-0.1,0.4-0.1,0.4
		c0,0.6,0.3,0.8,0.5,0.9c0.4,0.2,0.9,0.3,1.4,0.3c0.6,0,1.1-0.1,1.5-0.4c0.3-0.2,0.5-0.7,0.5-1.4c0-0.5-0.1-1-0.4-1.4
		C106.8,46.4,106.4,46,105.9,45.7z"/>
	<path fill="#24253D" d="M93.9,49.8c-0.4,0.9-0.5,1.8-0.5,2.6c0,1.2,0.2,2.2,0.5,3c0.3,0.8,0.8,1.5,1.3,2.1c0.5,0.6,1.1,1,1.7,1.4
		c0.6,0.3,1.3,0.6,1.9,0.8c0.5,0.1,0.9,0.2,1.3,0.3c-0.2-0.1-0.3-0.2-0.5-0.3c-0.6-0.5-1.1-1.2-1.5-2c-0.3-0.8-0.5-1.7-0.6-2.6
		c-0.1-0.9-0.1-1.9-0.1-2.8c0-1,0-2,0.1-2.9c0.1-0.9,0.3-1.8,0.6-2.5c0.3-0.7,0.7-1.3,1.3-1.8c0.1-0.1,0.1-0.1,0.2-0.2
		c-0.5,0.1-1,0.3-1.4,0.5c-1,0.5-1.9,1.1-2.6,1.9C94.8,48.1,94.3,48.9,93.9,49.8z"/>
	<path fill="#24253D" d="M110.8,46.7c-0.3,0.4-0.4,0.9-0.4,1.4c0,0.3,0,0.6,0.1,0.8c0.1,0.2,0.2,0.3,0.4,0.4
		c0.1,0.1,0.3,0.2,0.5,0.2c0.2,0,0.5,0,0.7,0c0.2,0,0.4,0,0.6,0c0.2,0,0.4-0.1,0.6-0.1c0.2-0.1,0.3-0.2,0.4-0.3
		c0.1-0.1,0.2-0.3,0.2-0.6c0-0.1,0-0.2,0-0.3c0-0.2,0-0.4-0.1-0.6c0-0.2,0-0.4-0.1-0.6c0-0.2,0-0.3,0-0.4c0-0.8,0.3-1.4,0.8-1.7
		c0,0,0,0,0,0c-0.2,0-0.4,0.1-0.5,0.1c-0.7,0.2-1.3,0.4-1.8,0.7C111.5,45.9,111.1,46.3,110.8,46.7z"/>
	<path fill="#24253D" d="M118.7,57.7l0.1,0.3c0.1,0.7,0.4,1.2,0.9,1.5c0.6,0.5,1.7,0.6,3.2,0.5c-0.3-0.2-0.5-0.4-0.6-0.6
		c-0.1-0.4-0.2-0.8-0.2-1.3v-8.8c0-0.9-0.2-1.7-0.5-2.3c-0.3-0.6-0.7-1.1-1.3-1.4c-0.5-0.3-1.2-0.6-1.9-0.7c-0.3-0.1-0.7-0.1-1-0.1
		c0.3,0.2,0.5,0.4,0.6,0.6c0.3,0.6,0.5,1.2,0.5,1.9V56C118.6,56.6,118.7,57.7,118.7,57.7z"/>
	<path fill="#24253D" d="M109.2,57c0,0.6,0.1,1.1,0.4,1.5c0.3,0.4,0.6,0.7,1.1,1c0.5,0.2,1,0.4,1.5,0.5c1,0.2,2,0.2,2.8,0.1
		c-0.3-0.1-0.6-0.2-0.9-0.4c-0.4-0.3-0.6-0.6-0.8-1.1c-0.2-0.4-0.3-0.8-0.3-1.2c0-0.4-0.1-0.7-0.1-1c0-0.8,0.1-1.4,0.4-1.9
		c0.2-0.5,0.6-0.9,1-1.3c0.2-0.2,0.4-0.3,0.7-0.5c-0.4,0.1-0.8,0.3-1.4,0.4c-0.6,0.2-1.2,0.4-1.7,0.6c-0.5,0.2-1,0.4-1.4,0.7
		c-0.4,0.3-0.7,0.6-1,1.1C109.3,55.9,109.2,56.4,109.2,57z"/>
	<rect x="126.6" y="34.8" fill="#24253D" width="3.6" height="24.9"/>
	<path fill="#24253D" d="M-23.4,60.2c-2.9-0.6-3.4-4.3-3.4-4.3l0,0h0h0h0l0,0c0,0-0.6,3.7-3.4,4.3l3.4-0.1L-23.4,60.2z"/>
</g>
<g>
	<g>
		<path fill="#24253D" d="M28.8,86v-9.1l0.9-0.9h3.7l0.9,0.9v2.3h-1.8V78l-0.2-0.2h-1.4L30.7,78v6.9l0.2,0.2h1.4l0.2-0.2v-1.2h1.8
			V86l-0.9,0.9h-3.7L28.8,86z"/>
		<path fill="#24253D" d="M42,76.9V86l-0.9,0.9h-3.7L36.6,86v-9.1l0.9-0.9h3.7L42,76.9z M40,77.8h-1.4L38.4,78v7l0.2,0.2H40l0.2-0.2
			v-7L40,77.8z"/>
		<path fill="#24253D" d="M49.7,76v1.8h-3.4v2.8h2.5v1.8h-2.5v4.6h-1.8V76H49.7z"/>
		<path fill="#24253D" d="M57,76v1.8h-3.4v2.8h2.5v1.8h-2.5v4.6h-1.8V76H57z"/>
		<path fill="#24253D" d="M59.1,86.9V76h5.2v1.8h-3.4v2.7h2.5v1.8h-2.5v2.9h3.4v1.8H59.1z"/>
		<path fill="#24253D" d="M66.6,86.9V76h5.2v1.8h-3.4v2.7h2.5v1.8h-2.5v2.9h3.4v1.8H66.6z"/>
	</g>
</g>
<path fill="#24253D" d="M62.1-23.9c-3.2-1.7-6.7-2.7-10.3-2.9c-0.5,0-1.1-0.1-1.6-0.1c-0.3,0-0.7,0-1,0c-0.7,0-1.4,0.1-2,0.1
	c-3.2,0.3-6.3,1.1-9.2,2.6c-7.7,3.9-12.6,10.1-14.5,18.5c-0.4,1.6-0.4,3.2-0.6,4.8c0,0.1,0,0.2,0,0.2c0,0.3,0,0.7,0,1
	C23,1,23,1.7,23,2.3c0.3,3.8,1.5,7.5,3.4,10.8c4.2,7.1,10.3,11.5,18.4,13c14.1,2.7,27.7-6.3,30.9-20.3C78.5-6,72.8-18.3,62.1-23.9z
	 M72.3,10.5c-0.6,1.2-1.3,2.3-2,3.5c0,0.1-0.1,0.1-0.1,0.1c0-0.1-0.1-0.1-0.1-0.2c-1.7-5.8-3.4-11.6-5.1-17.3
	c-1.7-5.9-3.5-11.9-5.2-17.8c0,0,0-0.1-0.1-0.1c0,0,0,0.1-0.1,0.1c-1,3.9-2,7.7-3.1,11.6c0,0.1-0.2,0.2-0.3,0.2
	c-2.6-0.4-5.2-0.6-7.8-0.5c-1.4,0.1-2.8,0.2-4.1,0.3c-0.1,0-0.2,0.2-0.2,0.2c0.1,0.4,0.2,0.7,0.3,1.1c0,0.1,0.1,0.1,0.2,0.1
	C50.3-9,55.8-8.4,61.1-6.6C62-6.3,62.4-5.9,62.7-5c0.8,3.1,1.8,6.2,2.7,9.3c0,0.1,0,0.3-0.1,0.3C61.7,6.2,57.9,7.2,54,7.7
	c-0.1,0-0.2-0.1-0.1-0.2c1.2-4.5,2.4-9.1,3.6-13.6c0-0.1-0.1-0.3-0.2-0.3c-0.4-0.1-0.8-0.2-1.3-0.3c-0.1,0-0.3,0.1-0.3,0.2
	C54.5-1.9,53.2,2.9,52,7.6c0,0.1-0.2,0.2-0.3,0.2c-1,0-1.9,0-2.9,0.1c-0.1,0-0.2,0.1-0.1,0.2C48.8,8.6,48.9,9,49,9.4
	c0,0.1,0.1,0.2,0.2,0.2c0.3,0,0.7,0,1,0c0,0,2.9-0.1,4.2-0.3c3.9-0.5,7.6-1.5,11.2-3.1c0.2-0.1,0.3-0.1,0.3,0.2
	c0.9,3.1,1.8,6.2,2.7,9.3c0,0.1,0,0.2-0.1,0.3c-4.1,4.7-9.2,7.5-15.4,8.5c-1.2,0.2-2.4,0.2-3.3,0.3c-7.9-0.2-14.3-3-19.3-8.7
	c-0.1-0.1-0.1-0.3-0.1-0.4c0.8-2.7,1.6-5.4,2.4-8.1c0.1-0.4-0.1-0.5-0.1-0.5S32,6.8,31.8,6.7c-0.2-0.1-0.3,0-0.4,0.1
	c-0.7,2.3-1.4,4.8-2.1,7.2c0,0.1-0.1,0.1-0.1,0.2c0,0-0.1-0.1-0.1-0.1c-2.3-3.3-3.7-7-4.2-11c0-0.3-0.1-0.6-0.1-0.9
	c0-0.3-0.1-0.6-0.1-0.9c0-0.1,0-0.2,0-0.3C24.8,1,24.9,1,25,1.1c2,1.5,4,2.9,6.2,4c0.7,0.3,1.5,0.8,2.4,1.2c0,0,0,0,0,0
	C37.5,8,41.4,9,45.6,9.4c0.3,0,0.5,0.2,0.6,0.5c1.2,4.4,2.3,8.8,3.5,13.3c0,0,0,0.1,0,0.1c0-0.1,0-0.1,0.1-0.2
	c1.1-4.1,2.1-8,3.2-12.1c0-0.1,0.1-0.5-0.2-0.5c-0.2,0-1.2,0.1-1.4,0.1s-0.2,0.2-0.2,0.3c-0.5,1.7-0.9,3.5-1.4,5.3
	c0,0,0,0.1-0.1,0.1c0,0-0.1-0.1-0.1-0.1c-0.6-2.3-1.2-4.6-1.8-6.9c-2.7-10.1-5.3-20.3-8-30.4c0-0.1,0-0.1-0.1-0.2
	c0,0.1-0.1,0.1-0.1,0.2c-1.3,4.5-2.6,9-4,13.5c0,0.1-0.2,0.3-0.3,0.4c-3.8,1.5-7.2,3.5-10.4,6c-0.1,0-0.1,0.1-0.2,0.1
	c0-0.1,0-0.1,0-0.2c0.4-6.4,2.8-11.8,7.3-16.4c3.7-3.7,8.2-6.1,13.4-7c1.4-0.2,2.9-0.3,4.3-0.5c12,0.1,22.2,8.5,24.5,20.3
	c0.2,1.2,0.3,2.4,0.4,3.6c0,0.1,0,0.1,0,0.2c-0.1,0-0.1,0-0.2-0.1c-2.8-2.2-5.9-4-9.1-5.4c-0.1,0-0.2,0-0.3-0.1c0,0.1,0,0.2,0,0.3
	c0.2,0.6,0.3,1.1,0.5,1.7c0,0.1,0.1,0.2,0.2,0.3C68.3-3.5,70.8-2,73-0.3c0.2,0.1,0.2,0.2,0,0.3c-1.5,1-3.2,2.1-4.7,3.1
	c-0.1,0.1-0.1,0.2-0.1,0.3c0.1,0.4,0.2,0.9,0.4,1.3c0,0.1,0.2,0.1,0.2,0.1c1.9-1.2,3.9-2.6,5.8-3.8c0,0,0.1-0.1,0.2-0.1
	c0,0.1,0,0.1,0,0.2C74.5,4.4,73.7,7.5,72.3,10.5z M61.7-8.2c0,0-0.1,0-0.1,0c-1-0.3-2.1-0.5-3.1-0.8c-0.1,0-0.1-0.1-0.2-0.1
	c0.2-0.9,0.4-1.7,0.7-2.5c0.3-1,0.5-2,0.8-3c0,0,0-0.1,0.1-0.1c0,0,0,0.1,0.1,0.1c0.6,2.1,1.2,4.2,1.8,6.2
	C61.7-8.3,61.7-8.2,61.7-8.2z M41.4-7.5c0.1,0,0.2,0.1,0.2,0.1c1.3,5,2.6,9.9,3.9,14.9c0,0.1-0.1,0.1-0.1,0.2
	C41.6,7.3,38,6.3,34.6,4.8c-0.7-0.3-0.7-0.3-0.5-1c0.8-2.8,1.7-5.7,2.5-8.5c0-0.1,0-0.1,0-0.2c-0.1,0-0.1,0-0.2,0
	c-0.6,0.2-1.1,0.5-1.7,0.8c-0.1,0.1-0.2,0.2-0.3,0.3c-0.7,2.3-1.4,4.8-2.1,7.2c-0.1,0.2-0.1,0.2-0.3,0.1c-2-1.1-3.9-2.3-5.7-3.7
	c0,0,0-0.2,0-0.2C30.9-3.8,35.9-6.1,41.4-7.5z M37.7-8.3c0.6-2.1,1.2-4.2,1.8-6.3c0,0,0-0.1,0.1-0.1c0,0,0,0.1,0.1,0.1
	c0.5,1.8,0.9,3.6,1.4,5.4c0,0,0,0,0,0.1C41.1-9.1,41-9,41-9c-1.1,0.3-2.1,0.6-3.2,0.8C37.8-8.2,37.7-8.3,37.7-8.3z"/>
</svg>
